<svg width="30" height="30" viewBox="0 0 30 30" fill="none" xmlns="http://www.w3.org/2000/svg">
<path d="M30 15C30 23.2843 23.2843 30 15 30C6.71573 30 0 23.2843 0 15C0 6.71573 6.71573 0 15 0C23.2843 0 30 6.71573 30 15Z" fill="white"/>
<path d="M16.4666 3C15.8535 3.00049 15.2657 3.24424 14.8322 3.67774C14.3987 4.11124 14.1549 4.69905 14.1545 5.31211C14.1545 6.58747 15.1912 7.62422 16.4666 7.62422C17.7419 7.62422 18.7787 6.58747 18.7787 5.31211C18.7787 4.03675 17.7419 3 16.4666 3ZM14.0971 8.54907C13.5043 8.54907 13.2731 8.75161 12.9115 8.95415L9.84838 11.5548C9.5774 11.7102 9.4322 11.9525 9.32769 12.2771L8.66366 16.6701C8.56932 17.3712 8.93741 17.6532 9.35729 17.7392C9.69671 17.8086 10.2091 17.6532 10.3099 17.1621C10.3931 16.7571 11.0035 13.1733 11.0035 13.1733L12.9984 11.6417C12.7297 12.8922 12.4695 14.1445 12.2178 15.3985C12.0301 16.3705 12.5323 17.1076 12.9115 17.6819C13.2629 18.2091 17.7484 25.3193 18.3449 26.0924C18.9415 26.8656 19.4797 27.2485 20.3102 26.7861C21.0039 26.3995 20.8993 25.5033 20.5128 24.8494C18.8705 22.1584 17.223 19.4705 15.5704 16.7857L16.351 13.4914C16.351 13.4914 16.8855 14.2498 17.1602 14.6762C17.2897 14.8787 17.4099 14.9684 17.7669 15.1673C18.1859 15.3985 20.2131 16.3048 20.8309 16.5832C21.3793 16.8292 22.0887 16.9235 22.3624 16.4389C22.6371 15.9552 22.2829 15.3846 21.8714 15.1959C21.4228 14.9906 18.4319 13.4914 18.4319 13.4914C18.4319 13.4914 17.359 11.2589 16.8134 10.0233C16.3001 8.85981 15.957 8.54907 15.2236 8.54907H14.0971ZM11.8128 18.173L10.8879 21.41L8.43244 24.9937C8.03106 25.5791 7.71662 26.2654 8.40285 26.7861C9.17232 27.3678 9.79382 26.627 10.1952 26.1784C10.5596 25.7669 12.0551 23.6749 12.4777 23.145C12.7598 22.7898 12.9078 22.4865 13.0271 22.1905C13.1066 21.9917 13.41 21.1898 13.6051 20.659L11.8128 18.173Z" fill="#0C1D37"/>
<path d="M16.4666 3C15.8535 3.00049 15.2657 3.24424 14.8322 3.67774C14.3987 4.11124 14.1549 4.69905 14.1545 5.31211C14.1545 6.58747 15.1912 7.62422 16.4666 7.62422C17.7419 7.62422 18.7787 6.58747 18.7787 5.31211C18.7787 4.03675 17.7419 3 16.4666 3ZM14.0971 8.54907C13.5043 8.54907 13.2731 8.75161 12.9115 8.95415L9.84838 11.5548C9.5774 11.7102 9.4322 11.9525 9.32769 12.2771L8.66366 16.6701C8.56932 17.3712 8.93741 17.6532 9.35729 17.7392C9.69671 17.8086 10.2091 17.6532 10.3099 17.1621C10.3931 16.7571 11.0035 13.1733 11.0035 13.1733L12.9984 11.6417C12.7297 12.8922 12.4695 14.1445 12.2178 15.3985C12.0301 16.3705 12.5323 17.1076 12.9115 17.6819C13.2629 18.2091 17.7484 25.3193 18.3449 26.0924C18.9415 26.8656 19.4797 27.2485 20.3102 26.7861C21.0039 26.3995 20.8993 25.5033 20.5128 24.8494C18.8705 22.1584 17.223 19.4705 15.5704 16.7857L16.351 13.4914C16.351 13.4914 16.8855 14.2498 17.1602 14.6762C17.2897 14.8787 17.4099 14.9684 17.7669 15.1673C18.1859 15.3985 20.2131 16.3048 20.8309 16.5832C21.3793 16.8292 22.0887 16.9235 22.3624 16.4389C22.6371 15.9552 22.2829 15.3846 21.8714 15.1959C21.4228 14.9906 18.4319 13.4914 18.4319 13.4914C18.4319 13.4914 17.359 11.2589 16.8134 10.0233C16.3001 8.85981 15.957 8.54907 15.2236 8.54907H14.0971ZM11.8128 18.173L10.8879 21.41L8.43244 24.9937C8.03106 25.5791 7.71662 26.2654 8.40285 26.7861C9.17232 27.3678 9.79382 26.627 10.1952 26.1784C10.5596 25.7669 12.0551 23.6749 12.4777 23.145C12.7598 22.7898 12.9078 22.4865 13.0271 22.1905C13.1066 21.9917 13.41 21.1898 13.6051 20.659L11.8128 18.173Z" fill="#0C1D37"/>
</svg>
